# xmcd
#
# Track frame offsets:
#	150
#	15102
#	29490
#	43401
#	55929
#	66906
#	78211
#	90337
#	104144
#	119058
#	131262
#	142231
#
# Disc length: 2063 seconds
#
# Revision: 1
# Processed by: cddbd v1.5.2PL0 Copyright (c) Steve Scherf et al.
# Submitted via: audiograbber 1.83.01
#
DISCID=a7080d0c
DTITLE=Doghouse Rose - Doghouse Rose
DYEAR=2014
DGENRE=Rockabilly
TTITLE0=No Mercy
TTITLE1=Drag Me Down
TTITLE2=Doin' Time
TTITLE3=I'm Gone
TTITLE4=Take Me Home
TTITLE5=Won't You Be Mine
TTITLE6=Hellbound
TTITLE7=Keys To My Heart
TTITLE8=Long Black Train
TTITLE9=Let's Go
TTITLE10=S.O.B.
TTITLE11=I Will Always Be Your Friend
EXTD=
EXTT0=
EXTT1=
EXTT2=
EXTT3=
EXTT4=
EXTT5=
EXTT6=
EXTT7=
EXTT8=
EXTT9=
EXTT10=
EXTT11=
PLAYORDER=
